<svg width="1047" height="621" viewBox="0 0 1047 621" fill="none" xmlns="http://www.w3.org/2000/svg">
<g clip-path="url(#clip0_374_1412)">
<circle cx="549" cy="13" r="5" fill="#1D1F21" stroke="#1D1F21" stroke-width="2"/>
<circle cx="549" cy="13" r="11.5" stroke="#1D1F21"/>
<circle cx="91" cy="528" r="5" fill="#1D1F21" stroke="#1D1F21" stroke-width="2"/>
<circle cx="91" cy="528" r="11.5" stroke="#1D1F21"/>
<circle cx="952" cy="528" r="5" fill="#1D1F21" stroke="#1D1F21" stroke-width="2"/>
<circle cx="952" cy="528" r="11.5" stroke="#1D1F21"/>
<rect x="797.277" y="40.2631" width="36" height="556.556" rx="1.5" transform="rotate(30 797.277 40.2631)" fill="#F4F6F6" stroke="#1D1F21"/>
<path d="M752.277 126.396C752.34 126.271 752.406 126.147 752.473 126.026L751.598 125.542C751.746 125.274 751.902 125.014 752.065 124.763L752.904 125.307C753.058 125.068 753.219 124.838 753.385 124.616L752.584 124.017C752.768 123.771 752.957 123.534 753.151 123.307L753.912 123.955C754.098 123.737 754.289 123.527 754.481 123.326L753.76 122.634C753.974 122.41 754.191 122.198 754.408 121.997L755.088 122.73C755.303 122.531 755.517 122.343 755.73 122.166L755.09 121.397C755.332 121.196 755.571 121.008 755.804 120.834L756.402 121.635C756.644 121.455 756.878 121.29 757.102 121.14L756.545 120.309C756.818 120.126 757.076 119.964 757.313 119.822L757.826 120.681C757.956 120.603 758.08 120.532 758.195 120.467C758.393 120.356 758.587 120.233 758.774 120.098L758.191 119.286C758.504 119.061 758.79 118.8 759.032 118.502L759.808 119.132C759.961 118.944 760.1 118.743 760.225 118.528L760.469 118.105L759.603 117.605L760.09 116.761L760.956 117.261L761.444 116.416L760.578 115.916L761.066 115.071L761.932 115.571L762.42 114.726L761.554 114.226L762.042 113.381L762.908 113.881L763.395 113.036L762.529 112.536L763.017 111.691L763.883 112.191L764.371 111.346L763.505 110.846L763.993 110.001L764.859 110.501L765.347 109.656L764.481 109.156L764.969 108.311L765.835 108.811L766.322 107.966L765.456 107.466L765.944 106.621L766.81 107.121L767.298 106.276L766.432 105.776L766.92 104.932L767.786 105.432L768.03 105.009C768.086 104.911 768.148 104.819 768.215 104.732L767.421 104.124C767.612 103.874 767.832 103.656 768.073 103.471L768.682 104.264C768.858 104.129 769.051 104.018 769.255 103.934L768.873 103.01C769.159 102.892 769.459 102.811 769.765 102.771L769.896 103.762C770.115 103.733 770.338 103.732 770.558 103.761L770.689 102.77C770.99 102.81 771.29 102.889 771.58 103.009L771.196 103.933C771.297 103.975 771.397 104.024 771.495 104.08L771.942 104.338L772.442 103.472L773.335 103.988L772.835 104.854L773.729 105.37L774.229 104.504L775.122 105.02L774.622 105.886L775.515 106.402L776.015 105.536L776.909 106.051L776.409 106.917L777.302 107.433L777.802 106.567L778.695 107.083L778.195 107.949L779.089 108.465L779.589 107.599L780.482 108.114L779.982 108.98L780.876 109.496L781.376 108.63L782.269 109.146L781.769 110.012L782.662 110.528L783.162 109.662L784.056 110.178L783.556 111.044L784.449 111.559L784.949 110.693L785.842 111.209L785.342 112.075L785.789 112.333C785.887 112.39 785.98 112.452 786.066 112.518L786.674 111.724C786.924 111.915 787.142 112.135 787.327 112.376L786.534 112.985C786.669 113.162 786.78 113.355 786.864 113.559L787.788 113.176C787.907 113.462 787.987 113.762 788.027 114.068L787.036 114.2C787.065 114.418 787.066 114.641 787.037 114.862L788.028 114.992C787.989 115.293 787.91 115.593 787.789 115.884L786.865 115.5C786.823 115.601 786.774 115.7 786.718 115.799L786.478 116.213L787.344 116.713L786.866 117.542L786 117.042L785.521 117.871L786.387 118.371L785.909 119.2L785.043 118.7L784.564 119.529L785.43 120.029L784.951 120.858L784.085 120.358L783.607 121.187L784.473 121.687L783.994 122.516L783.128 122.016L782.649 122.845L783.515 123.345L783.037 124.174L782.171 123.674L781.692 124.503L782.558 125.003L782.08 125.832L781.214 125.332L780.735 126.161L781.601 126.661L781.122 127.49L780.256 126.99L779.778 127.819L780.644 128.319L780.165 129.148L779.299 128.648L779.06 129.063C778.966 129.225 778.883 129.393 778.81 129.563L779.73 129.954C779.616 130.223 779.534 130.505 779.481 130.793L778.497 130.614C778.465 130.792 778.442 130.97 778.428 131.149C778.417 131.292 778.404 131.45 778.387 131.622L779.383 131.716C779.355 132.008 779.32 132.338 779.275 132.697L778.283 132.572C778.245 132.868 778.201 133.185 778.149 133.518L779.137 133.673C779.088 133.984 779.033 134.309 778.969 134.644L777.987 134.458C777.929 134.762 777.865 135.073 777.794 135.389L778.769 135.609C778.698 135.924 778.62 136.244 778.534 136.567L777.568 136.309C777.487 136.61 777.4 136.913 777.306 137.214L778.26 137.513C778.162 137.826 778.056 138.137 777.942 138.446L777.004 138.099C776.896 138.391 776.781 138.678 776.657 138.959L777.573 139.36C777.441 139.663 777.299 139.96 777.147 140.249L776.262 139.784C776.191 139.919 776.118 140.051 776.043 140.181C775.973 140.302 775.9 140.423 775.825 140.542L776.672 141.075C776.508 141.335 776.335 141.589 776.154 141.837L775.346 141.247C775.177 141.478 775.001 141.704 774.817 141.925L775.588 142.563C775.391 142.801 775.188 143.032 774.981 143.256L774.246 142.578C774.047 142.794 773.844 143.003 773.639 143.206L774.34 143.918C774.118 144.137 773.894 144.348 773.67 144.55L773 143.808C772.777 144.01 772.554 144.202 772.334 144.386L772.974 145.154C772.73 145.357 772.489 145.55 772.256 145.73L771.644 144.939C771.398 145.13 771.16 145.307 770.934 145.469L771.517 146.281C771.245 146.477 770.99 146.652 770.76 146.805L770.205 145.973C770.073 146.061 769.95 146.141 769.837 146.213C769.672 146.319 769.512 146.433 769.358 146.556L769.983 147.337C769.731 147.538 769.502 147.767 769.306 148.022L768.514 147.411C768.39 147.572 768.275 147.743 768.171 147.922L767.907 148.379L768.773 148.879L768.245 149.794L767.379 149.294L766.851 150.208L767.717 150.708L767.19 151.622L766.324 151.122L765.796 152.037L766.662 152.537L766.134 153.451L765.268 152.951L764.74 153.865L765.606 154.365L765.078 155.279L764.212 154.779L763.684 155.694L764.55 156.194L764.022 157.108L763.156 156.608L762.628 157.522L763.494 158.022L762.967 158.937L762.101 158.437L761.573 159.351L762.439 159.851L761.911 160.765L761.045 160.265L760.781 160.722C760.724 160.82 760.662 160.913 760.596 161L761.39 161.608C761.199 161.857 760.979 162.076 760.738 162.261L760.129 161.467C759.952 161.603 759.759 161.713 759.555 161.798L759.937 162.722C759.652 162.84 759.352 162.92 759.046 162.961L758.914 161.969C758.696 161.998 758.473 161.999 758.252 161.97L758.122 162.962C757.821 162.922 757.521 162.843 757.23 162.722L757.614 161.799C757.513 161.757 757.414 161.708 757.315 161.651L756.869 161.393L756.369 162.259L755.475 161.743L755.975 160.877L755.082 160.362L754.582 161.228L753.689 160.712L754.189 159.846L753.295 159.33L752.795 160.196L751.902 159.68L752.402 158.814L751.509 158.298L751.009 159.164L750.115 158.649L750.615 157.783L749.722 157.267L749.222 158.133L748.328 157.617L748.828 156.751L747.935 156.235L747.435 157.101L746.542 156.585L747.042 155.719L746.148 155.204L745.648 156.07L744.755 155.554L745.255 154.688L744.362 154.172L743.862 155.038L742.968 154.522L743.468 153.656L743.021 153.398C742.923 153.342 742.831 153.28 742.744 153.213L742.136 154.008C741.887 153.816 741.668 153.596 741.483 153.355L742.277 152.747C742.141 152.57 742.031 152.377 741.946 152.173L741.022 152.555C740.904 152.269 740.824 151.969 740.783 151.663L741.775 151.532C741.746 151.313 741.745 151.091 741.774 150.87L740.782 150.74C740.822 150.438 740.901 150.138 741.022 149.848L741.945 150.232C741.987 150.131 742.036 150.031 742.093 149.933L742.357 149.476L741.49 148.976L742.018 148.063L742.884 148.563L743.411 147.65L742.545 147.15L743.072 146.237L743.938 146.737L744.465 145.824L743.599 145.324L744.126 144.411L744.992 144.911L745.519 143.998L744.653 143.498L745.18 142.585L746.047 143.085L746.574 142.172L745.708 141.672L746.235 140.759L747.101 141.259L747.628 140.346L746.762 139.846L747.289 138.933L748.155 139.433L748.682 138.52L747.816 138.02L748.343 137.107L749.209 137.607L749.473 137.15C749.579 136.967 749.67 136.779 749.749 136.587L748.823 136.209C748.947 135.905 749.032 135.586 749.082 135.261L750.07 135.412C750.1 135.215 750.12 135.017 750.13 134.821C750.136 134.688 750.145 134.543 750.156 134.386L749.158 134.315C749.178 134.041 749.205 133.734 749.242 133.4L750.236 133.51C750.266 133.238 750.303 132.946 750.349 132.639L749.36 132.491C749.403 132.202 749.454 131.899 749.513 131.586L750.496 131.771C750.548 131.492 750.608 131.205 750.675 130.911L749.7 130.688C749.766 130.397 749.84 130.1 749.922 129.797L750.887 130.059C750.962 129.783 751.044 129.502 751.134 129.218L750.18 128.917C750.271 128.63 750.369 128.341 750.475 128.049L751.415 128.391C751.513 128.122 751.619 127.851 751.732 127.579L750.809 127.194C750.926 126.915 751.05 126.635 751.183 126.356L752.086 126.785C752.148 126.655 752.211 126.525 752.277 126.396Z" stroke="#1D1F21" stroke-width="2" stroke-dasharray="1 1"/>
<path fill-rule="evenodd" clip-rule="evenodd" d="M772.293 138.032L772.786 138.354C772.888 138.198 772.986 138.039 773.081 137.875C773.175 137.712 773.264 137.547 773.348 137.381L772.825 137.116C772.983 136.803 773.124 136.479 773.247 136.145L773.799 136.351C773.931 135.997 774.042 135.638 774.131 135.277L773.559 135.135L772.987 134.993C772.909 135.307 772.813 135.619 772.699 135.927L772.146 135.724C772.029 136.042 771.893 136.35 771.74 136.647L771.74 136.647L771.216 136.377C771.062 136.677 770.889 136.964 770.7 137.236L771.185 137.572L771.669 137.908C771.714 137.843 771.758 137.777 771.802 137.711L772.293 138.032ZM773.756 134.096L774.34 134.173C774.389 133.8 774.417 133.426 774.423 133.052L773.834 133.042L773.245 133.031C773.248 132.859 773.247 132.688 773.24 132.517L773.829 132.494C773.822 132.324 773.811 132.154 773.795 131.985L774.38 131.929C774.345 131.556 774.289 131.185 774.212 130.818L773.635 130.939L773.059 131.059C773.002 130.783 772.931 130.511 772.847 130.243L772.849 130.243L773.412 130.068C773.396 130.017 773.38 129.966 773.363 129.916L773.921 129.732C773.804 129.377 773.668 129.027 773.511 128.686L772.976 128.931L772.969 128.916L772.434 129.163L771.899 129.411C772.039 129.715 772.162 130.029 772.265 130.35L772.263 130.351L771.702 130.531C771.804 130.849 771.885 131.173 771.945 131.503L772.525 131.398L773.104 131.293C773.108 131.318 773.113 131.343 773.117 131.367L772.538 131.467C772.595 131.796 772.632 132.131 772.648 132.47L772.059 132.498C772.075 132.829 772.069 133.164 772.041 133.5L772.628 133.549L773.216 133.599C773.227 133.464 773.235 133.33 773.24 133.195C773.234 133.355 773.224 133.514 773.21 133.673L773.208 133.673L772.621 133.619C772.604 133.797 772.582 133.976 772.554 134.156C772.529 134.311 772.5 134.465 772.467 134.617L771.892 134.491C771.856 134.654 771.815 134.816 771.769 134.979C771.722 135.141 771.67 135.301 771.614 135.458L772.169 135.656L772.724 135.855C772.789 135.674 772.848 135.491 772.902 135.304C772.948 135.142 772.99 134.98 773.027 134.818L773.027 134.818L773.602 134.947C773.647 134.748 773.686 134.545 773.718 134.341C773.731 134.259 773.743 134.177 773.754 134.096L773.756 134.096ZM772.482 127.996L772.987 127.692C772.795 127.372 772.584 127.062 772.355 126.763L771.887 127.121L771.885 127.123C771.81 127.025 771.733 126.929 771.654 126.834L771.201 127.211L771.159 127.246L771.09 127.205L771.151 127.153C770.919 126.878 770.67 126.617 770.405 126.371L770.405 126.371L770.406 126.37C770.532 126.487 770.655 126.607 770.773 126.729L771.197 126.32L771.622 125.911C771.364 125.643 771.089 125.388 770.797 125.147L770.422 125.602L770.422 125.602C770.236 125.448 770.045 125.301 769.847 125.161L769.507 125.642L769.166 126.123C769.442 126.318 769.704 126.53 769.952 126.756L769.952 126.756L769.555 127.192C769.803 127.418 770.036 127.659 770.251 127.914L770.614 127.606L770.759 127.693L770.902 127.779C771.059 127.98 771.206 128.187 771.344 128.401L771.343 128.402L770.847 128.72C771.028 129.002 771.191 129.295 771.334 129.598L771.867 129.346L772.4 129.095C772.246 128.769 772.072 128.452 771.88 128.148L771.881 128.147L771.882 128.146C771.914 128.197 771.946 128.248 771.977 128.299L772.482 127.996ZM769.57 124.974L769.892 124.481C769.736 124.379 769.576 124.281 769.413 124.186C769.249 124.092 769.085 124.003 768.918 123.919L768.653 124.443C768.34 124.285 768.016 124.144 767.683 124.02L767.888 123.468C767.534 123.336 767.176 123.225 766.815 123.136L766.673 123.708L766.53 124.28C766.844 124.358 767.156 124.454 767.464 124.568L767.464 124.568L767.261 125.121C767.579 125.238 767.887 125.374 768.183 125.527L768.182 125.529L767.913 126.053C768.213 126.207 768.5 126.379 768.772 126.568L769.108 126.084L769.444 125.6C769.379 125.555 769.314 125.511 769.247 125.467L769.57 124.974ZM765.634 123.511L765.711 122.927C765.337 122.878 764.963 122.85 764.59 122.844L764.579 123.433L764.569 124.022C764.783 124.026 764.997 124.038 765.211 124.057L765.211 124.06L765.156 124.647C765.334 124.663 765.514 124.686 765.694 124.714C765.848 124.739 766.001 124.767 766.153 124.8L766.152 124.801L766.027 125.377C766.189 125.413 766.352 125.454 766.514 125.5C766.677 125.547 766.837 125.598 766.993 125.654L767.192 125.099L767.391 124.544C767.21 124.48 767.026 124.421 766.839 124.367C766.678 124.321 766.516 124.279 766.355 124.242L766.355 124.241L766.485 123.666C766.285 123.621 766.083 123.582 765.878 123.55C765.796 123.537 765.715 123.525 765.634 123.514L765.634 123.511ZM763.522 123.472L763.467 122.887C763.093 122.922 762.722 122.978 762.356 123.055L762.476 123.632L762.597 124.209C762.321 124.267 762.049 124.337 761.781 124.421L761.78 124.419L761.605 123.856C761.554 123.872 761.504 123.888 761.454 123.904L761.27 123.346C760.914 123.463 760.565 123.6 760.224 123.756L760.469 124.292L760.469 124.292L760.454 124.299L760.701 124.834L760.948 125.369C761.252 125.229 761.565 125.106 761.886 125.003L761.887 125.006L762.067 125.567C762.384 125.465 762.709 125.383 763.039 125.324L762.934 124.744L762.829 124.164C762.854 124.159 762.879 124.155 762.905 124.15L763.004 124.729C763.333 124.673 763.667 124.636 764.006 124.62L764.006 124.621L764.034 125.21C764.365 125.194 764.699 125.2 765.035 125.228L765.085 124.64L765.134 124.053C764.772 124.023 764.412 124.015 764.054 124.029L764.054 124.028L764.032 123.439C763.861 123.446 763.691 123.457 763.522 123.472ZM759.533 124.785L759.229 124.28C758.909 124.472 758.599 124.683 758.3 124.912L758.659 125.38L758.661 125.383C758.563 125.458 758.466 125.535 758.372 125.614L758.748 126.067L759.125 126.52C759.383 126.306 759.655 126.107 759.937 125.925L759.937 125.926L760.256 126.422C760.538 126.241 760.831 126.078 761.134 125.935L760.882 125.402L760.63 124.869C760.305 125.023 759.989 125.196 759.685 125.388L759.684 125.387L759.683 125.385C759.734 125.353 759.785 125.321 759.837 125.29L759.533 124.785ZM757.858 126.07L757.449 125.645C757.181 125.904 756.926 126.179 756.685 126.47L757.139 126.845L757.14 126.846C756.986 127.031 756.838 127.223 756.699 127.421L757.18 127.761L757.661 128.102C757.856 127.827 758.066 127.565 758.292 127.317L758.728 127.713C758.953 127.465 759.195 127.233 759.449 127.018L759.069 126.568L758.688 126.117C758.414 126.349 758.154 126.598 757.908 126.863L757.907 126.862C758.024 126.735 758.144 126.613 758.267 126.494L757.858 126.07ZM755.724 127.854C755.818 127.691 755.916 127.531 756.018 127.375L756.512 127.698L757.004 128.019C757.047 127.954 757.091 127.889 757.135 127.825L757.62 128.161L758.104 128.497C757.915 128.769 757.743 129.056 757.589 129.356L757.064 129.086L757.063 129.086C756.911 129.382 756.776 129.689 756.659 130.007L756.106 129.803L756.105 129.803C755.991 130.111 755.895 130.423 755.817 130.737L755.245 130.595L754.673 130.452C754.763 130.091 754.874 129.733 755.005 129.379L755.558 129.584L755.558 129.584C755.681 129.251 755.823 128.927 755.98 128.614L755.456 128.349C755.54 128.183 755.63 128.018 755.724 127.854ZM755.049 131.633L754.464 131.556C754.415 131.93 754.388 132.304 754.381 132.677L754.971 132.688L755.56 132.698C755.556 132.871 755.558 133.042 755.565 133.213L754.976 133.236C754.983 133.406 754.994 133.576 755.01 133.745L754.424 133.8C754.46 134.174 754.516 134.545 754.592 134.912L755.169 134.791L755.744 134.671C755.802 134.947 755.873 135.219 755.956 135.487L755.956 135.487L755.393 135.663C755.409 135.713 755.425 135.763 755.442 135.814L754.883 135.997C755 136.353 755.137 136.702 755.293 137.044L755.829 136.798L755.836 136.814L756.371 136.567L756.907 136.319C756.766 136.016 756.644 135.703 756.541 135.382L756.541 135.382L757.103 135.202C757.001 134.884 756.919 134.56 756.859 134.23L756.279 134.335L755.701 134.44C755.697 134.414 755.692 134.389 755.688 134.363L756.267 134.263C756.21 133.935 756.174 133.601 756.158 133.263L756.745 133.235C756.73 132.904 756.735 132.569 756.764 132.233L756.176 132.184L755.589 132.134C755.579 132.247 755.572 132.359 755.567 132.47C755.573 132.332 755.582 132.195 755.595 132.057L755.597 132.057L756.184 132.112C756.201 131.933 756.223 131.754 756.252 131.574C756.276 131.42 756.305 131.267 756.337 131.116L756.913 131.242C756.948 131.079 756.989 130.917 757.036 130.754C757.083 130.592 757.134 130.432 757.19 130.275L756.635 130.077L756.08 129.878C756.015 130.059 755.956 130.242 755.903 130.429C755.856 130.59 755.815 130.751 755.778 130.913L755.778 130.913L755.203 130.783C755.158 130.982 755.12 131.185 755.087 131.39C755.074 131.471 755.062 131.552 755.052 131.634L755.049 131.633ZM756.323 137.734L755.818 138.038C756.01 138.358 756.221 138.668 756.45 138.967L756.918 138.608L756.92 138.607C756.995 138.705 757.072 138.801 757.151 138.896L757.604 138.519L758.058 138.143C757.843 137.884 757.644 137.613 757.462 137.331L757.957 137.013C757.776 136.731 757.614 136.438 757.471 136.135L756.938 136.387L756.405 136.638C756.558 136.964 756.732 137.279 756.923 137.584L756.923 137.584C756.891 137.533 756.859 137.482 756.828 137.43L756.323 137.734ZM758.007 140.582C757.716 140.341 757.441 140.086 757.183 139.819L757.607 139.409L758.032 139C757.901 138.864 757.775 138.724 757.653 138.58L758.103 138.2L758.554 137.819C758.769 138.074 759.001 138.315 759.249 138.541L758.854 138.975C759.102 139.201 759.364 139.412 759.639 139.607L759.299 140.088L758.958 140.569C758.76 140.429 758.569 140.282 758.383 140.128L758.383 140.128L758.007 140.582ZM759.235 140.755L758.913 141.249C759.069 141.351 759.228 141.449 759.392 141.543C759.555 141.638 759.72 141.727 759.886 141.811L760.151 141.287C760.464 141.445 760.788 141.586 761.122 141.71L760.916 142.262C761.27 142.394 761.629 142.504 761.99 142.594L762.132 142.022L762.274 141.45C762.02 141.386 761.766 141.311 761.515 141.224C761.663 141.275 761.813 141.322 761.965 141.366C762.126 141.412 762.288 141.454 762.45 141.491L762.32 142.064C762.52 142.109 762.722 142.148 762.927 142.181C763.009 142.193 763.09 142.205 763.171 142.216L763.171 142.218L763.094 142.803C763.467 142.852 763.841 142.879 764.215 142.886L764.225 142.297L764.236 141.709C764.408 141.713 764.58 141.711 764.751 141.704L764.773 142.291C764.944 142.285 765.114 142.274 765.283 142.258L765.338 142.843C765.712 142.808 766.083 142.751 766.449 142.675L766.329 142.098L766.209 141.524C766.485 141.466 766.757 141.395 767.025 141.312L767.2 141.874C767.251 141.859 767.301 141.843 767.351 141.826L767.535 142.384C767.89 142.267 768.24 142.13 768.581 141.974L768.336 141.438L768.351 141.431L768.104 140.896L767.857 140.361C767.552 140.502 767.239 140.624 766.918 140.727L766.738 140.166C766.42 140.268 766.095 140.35 765.765 140.409L765.871 140.989L765.975 141.566C765.95 141.571 765.925 141.575 765.9 141.579L765.801 141.001C765.472 141.058 765.137 141.094 764.798 141.11L764.77 140.523C764.439 140.539 764.105 140.533 763.769 140.505L763.72 141.093L763.67 141.679C763.645 141.677 763.62 141.675 763.594 141.672L763.595 141.671L763.649 141.084C763.471 141.067 763.291 141.045 763.112 141.016C763.105 141.015 763.098 141.014 763.092 141.013L763.111 140.981L762.858 140.829L762.696 140.731L762.778 140.356C762.615 140.32 762.453 140.279 762.29 140.233C762.127 140.186 761.968 140.135 761.811 140.079L761.612 140.634L761.414 141.188C761.389 141.18 761.365 141.171 761.341 141.162L761.544 140.609C761.226 140.492 760.918 140.356 760.622 140.204L760.891 139.68C760.591 139.526 760.305 139.354 760.033 139.165L759.697 139.649L759.361 140.133C759.425 140.178 759.49 140.222 759.556 140.265L759.235 140.755ZM769.272 140.944L769.575 141.45C769.895 141.257 770.206 141.046 770.504 140.817L770.146 140.349L770.144 140.348C770.242 140.272 770.339 140.195 770.434 140.117L770.057 139.663L769.68 139.21C769.421 139.425 769.149 139.624 768.866 139.806L768.548 139.311C768.267 139.492 767.973 139.655 767.671 139.798L767.922 140.331L768.174 140.864C768.5 140.71 768.816 140.536 769.121 140.344L769.121 140.345C769.071 140.377 769.019 140.408 768.968 140.439L769.272 140.944ZM770.947 139.66L771.356 140.084C771.624 139.826 771.879 139.551 772.12 139.26L771.666 138.884C771.82 138.699 771.967 138.507 772.106 138.31L771.625 137.969L771.144 137.629C770.949 137.904 770.738 138.167 770.512 138.415L770.077 138.02C769.851 138.268 769.61 138.5 769.355 138.715L769.736 139.165L770.116 139.616C770.261 139.493 770.402 139.366 770.538 139.235L770.538 139.235L770.947 139.66ZM769.796 129.866L770.404 128.856L770.151 128.704L769.646 128.4L769.393 128.248L768.786 129.258L769.038 129.41L769.543 129.714L769.796 129.866ZM768.58 131.887L769.188 130.876L768.936 130.725L768.43 130.421L768.178 130.269L767.57 131.279L767.823 131.431L768.328 131.735L768.58 131.887ZM767.365 133.908L767.973 132.897L767.72 132.746L767.215 132.442L766.962 132.29L766.355 133.3L766.607 133.452L767.112 133.756L767.365 133.908ZM766.15 135.929L766.757 134.918L766.505 134.766L766 134.463L765.747 134.311L765.139 135.321L765.392 135.473L765.897 135.777L766.15 135.929ZM764.934 137.95L765.542 136.939L765.289 136.787L764.784 136.484L764.532 136.332L763.924 137.342L764.176 137.494L764.682 137.798L764.934 137.95ZM763.719 139.971L764.326 138.96L764.074 138.808L763.569 138.505L763.316 138.353L762.708 139.363L762.961 139.515L763.466 139.819L763.719 139.971Z" fill="#1D1F21"/>
<circle cx="774.41" cy="115.498" r="1.76842" transform="rotate(30 774.41 115.498)" stroke="#1D1F21" stroke-width="1.17895" stroke-dasharray="1.18 1.18"/>
<circle cx="754.367" cy="150.213" r="1.76842" transform="rotate(30 754.367 150.213)" stroke="#1D1F21" stroke-width="1.17895" stroke-dasharray="1.18 1.18"/>
<rect x="796.655" y="47.1385" width="29.8316" height="56.9474" rx="2.53684" transform="rotate(30 796.655 47.1385)" stroke="#1D1F21" stroke-width="2" stroke-dasharray="1 1"/>
<circle cx="795.352" cy="79.2652" r="9.43158" transform="rotate(30 795.352 79.2652)" stroke="#1D1F21" stroke-width="1.17895" stroke-dasharray="1.18 1.18"/>
<circle cx="795.337" cy="79.2548" r="7.66316" transform="rotate(30 795.337 79.2548)" stroke="#1D1F21" stroke-width="1.17895" stroke-dasharray="1.18 1.18"/>
<circle cx="805.359" cy="61.8977" r="1.76842" transform="rotate(30 805.359 61.8977)" stroke="#1D1F21" stroke-width="1.17895" stroke-dasharray="1.18 1.18"/>
<circle cx="785.312" cy="96.6116" r="1.76842" transform="rotate(30 785.312 96.6116)" stroke="#1D1F21" stroke-width="1.17895" stroke-dasharray="1.18 1.18"/>
<path d="M721.328 179.999C721.391 179.874 721.457 179.751 721.524 179.629L720.648 179.146C720.797 178.877 720.953 178.617 721.115 178.367L721.955 178.91C722.109 178.672 722.27 178.441 722.436 178.219L721.635 177.621C721.819 177.375 722.008 177.138 722.201 176.911L722.963 177.559C723.149 177.34 723.339 177.13 723.532 176.93L722.811 176.237C723.025 176.014 723.242 175.802 723.459 175.6L724.139 176.333C724.353 176.134 724.568 175.946 724.781 175.769L724.141 175.001C724.383 174.799 724.622 174.612 724.855 174.438L725.453 175.239C725.694 175.058 725.929 174.893 726.153 174.743L725.596 173.913C725.869 173.73 726.127 173.568 726.364 173.426L726.877 174.284C727.007 174.206 727.13 174.135 727.245 174.07C727.443 173.959 727.637 173.836 727.825 173.702L727.242 172.889C727.555 172.664 727.841 172.403 728.082 172.106L728.859 172.735C729.011 172.548 729.151 172.347 729.275 172.131L729.519 171.709L728.653 171.209L729.141 170.364L730.007 170.864L730.495 170.019L729.629 169.519L730.117 168.674L730.983 169.174L731.471 168.329L730.605 167.829L731.092 166.984L731.958 167.484L732.446 166.639L731.58 166.139L732.068 165.294L732.934 165.794L733.422 164.95L732.556 164.45L733.044 163.605L733.91 164.105L734.398 163.26L733.532 162.76L734.019 161.915L734.885 162.415L735.373 161.57L734.507 161.07L734.995 160.225L735.861 160.725L736.349 159.88L735.483 159.38L735.971 158.535L736.837 159.035L737.081 158.613C737.137 158.515 737.199 158.422 737.265 158.335L736.471 157.727C736.663 157.478 736.883 157.259 737.124 157.074L737.732 157.868C737.909 157.732 738.102 157.622 738.306 157.537L737.924 156.613C738.21 156.495 738.51 156.415 738.816 156.374L738.947 157.366C739.166 157.337 739.388 157.336 739.609 157.365L739.739 156.373C740.041 156.413 740.34 156.492 740.631 156.613L740.247 157.536C740.348 157.578 740.448 157.627 740.546 157.684L740.993 157.942L741.493 157.076L742.386 157.592L741.886 158.458L742.779 158.973L743.279 158.107L744.173 158.623L743.673 159.489L744.566 160.005L745.066 159.139L745.96 159.655L745.46 160.521L746.353 161.037L746.853 160.171L747.746 160.686L747.246 161.552L748.14 162.068L748.64 161.202L749.533 161.718L749.033 162.584L749.926 163.1L750.426 162.234L751.32 162.75L750.82 163.616L751.713 164.131L752.213 163.265L753.106 163.781L752.606 164.647L753.5 165.163L754 164.297L754.893 164.813L754.393 165.679L754.84 165.937C754.938 165.993 755.03 166.055 755.117 166.122L755.725 165.327C755.975 165.519 756.193 165.739 756.378 165.98L755.585 166.588C755.72 166.765 755.831 166.958 755.915 167.162L756.839 166.78C756.957 167.066 757.038 167.366 757.078 167.672L756.087 167.803C756.116 168.022 756.116 168.244 756.088 168.465L757.079 168.595C757.039 168.897 756.96 169.197 756.84 169.487L755.916 169.103C755.874 169.204 755.825 169.304 755.768 169.402L755.529 169.817L756.395 170.317L755.917 171.146L755.051 170.646L754.572 171.475L755.438 171.975L754.959 172.804L754.093 172.304L753.615 173.133L754.481 173.633L754.002 174.462L753.136 173.962L752.657 174.791L753.523 175.291L753.045 176.12L752.179 175.62L751.7 176.449L752.566 176.949L752.088 177.778L751.222 177.278L750.743 178.107L751.609 178.607L751.13 179.436L750.264 178.936L749.786 179.765L750.652 180.265L750.173 181.094L749.307 180.594L748.828 181.423L749.694 181.923L749.216 182.752L748.35 182.252L748.111 182.666C748.016 182.829 747.933 182.996 747.861 183.166L748.781 183.558C748.667 183.827 748.584 184.108 748.532 184.396L747.548 184.218C747.516 184.395 747.493 184.574 747.479 184.753C747.468 184.895 747.455 185.054 747.438 185.226L748.434 185.32C748.406 185.612 748.371 185.941 748.326 186.3L747.333 186.176C747.296 186.472 747.252 186.789 747.2 187.122L748.188 187.276C748.139 187.588 748.084 187.913 748.02 188.248L747.038 188.061C746.98 188.365 746.916 188.676 746.845 188.993L747.82 189.213C747.749 189.528 747.671 189.848 747.585 190.17L746.619 189.912C746.538 190.214 746.451 190.516 746.356 190.817L747.311 191.117C747.213 191.429 747.107 191.741 746.992 192.05L746.055 191.703C745.947 191.994 745.831 192.282 745.708 192.562L746.624 192.964C746.491 193.267 746.349 193.564 746.198 193.853L745.312 193.388C745.242 193.522 745.169 193.655 745.094 193.784C745.024 193.906 744.951 194.026 744.876 194.146L745.722 194.678C745.559 194.938 745.385 195.192 745.205 195.44L744.397 194.85C744.228 195.082 744.051 195.308 743.868 195.529L744.639 196.167C744.442 196.405 744.239 196.636 744.032 196.86L743.297 196.182C743.098 196.398 742.895 196.607 742.689 196.809L743.391 197.522C743.169 197.741 742.944 197.951 742.721 198.153L742.051 197.411C741.827 197.613 741.605 197.806 741.385 197.989L742.025 198.757C741.781 198.961 741.54 199.153 741.307 199.334L740.695 198.543C740.449 198.733 740.211 198.91 739.985 199.072L740.568 199.884C740.296 200.08 740.041 200.255 739.81 200.409L739.256 199.576C739.124 199.664 739.001 199.745 738.887 199.817C738.723 199.922 738.563 200.036 738.409 200.16L739.034 200.94C738.782 201.142 738.553 201.371 738.357 201.625L737.565 201.015C737.441 201.176 737.326 201.346 737.222 201.526L736.958 201.983L737.824 202.483L737.296 203.397L736.43 202.897L735.902 203.811L736.768 204.311L736.24 205.226L735.374 204.726L734.846 205.64L735.712 206.14L735.185 207.054L734.319 206.554L733.791 207.469L734.657 207.969L734.129 208.883L733.263 208.383L732.735 209.297L733.601 209.797L733.073 210.712L732.207 210.212L731.679 211.126L732.545 211.626L732.017 212.54L731.151 212.04L730.623 212.954L731.489 213.454L730.962 214.369L730.096 213.869L729.832 214.326C729.775 214.424 729.713 214.516 729.647 214.603L730.441 215.211C730.25 215.461 730.03 215.679 729.788 215.864L729.18 215.071C729.003 215.206 728.81 215.317 728.606 215.401L728.988 216.325C728.703 216.443 728.403 216.524 728.096 216.564L727.965 215.573C727.746 215.602 727.524 215.603 727.303 215.574L727.173 216.565C726.871 216.525 726.572 216.446 726.281 216.326L726.665 215.402C726.564 215.36 726.464 215.311 726.366 215.255L725.92 214.997L725.42 215.863L724.526 215.347L725.026 214.481L724.133 213.965L723.633 214.831L722.739 214.315L723.239 213.449L722.346 212.933L721.846 213.799L720.953 213.284L721.453 212.418L720.559 211.902L720.059 212.768L719.166 212.252L719.666 211.386L718.773 210.87L718.273 211.736L717.379 211.221L717.879 210.355L716.986 209.839L716.486 210.705L715.592 210.189L716.092 209.323L715.199 208.807L714.699 209.673L713.806 209.157L714.306 208.291L713.412 207.776L712.912 208.642L712.019 208.126L712.519 207.26L712.072 207.002C711.974 206.945 711.882 206.883 711.795 206.817L711.187 207.611C710.937 207.42 710.719 207.2 710.534 206.959L711.328 206.35C711.192 206.173 711.081 205.98 710.997 205.776L710.073 206.159C709.955 205.873 709.874 205.573 709.834 205.267L710.825 205.135C710.796 204.917 710.796 204.694 710.825 204.473L709.833 204.343C709.873 204.042 709.952 203.742 710.073 203.451L710.996 203.835C711.038 203.734 711.087 203.635 711.144 203.536L711.407 203.08L710.541 202.58L711.068 201.667L711.934 202.167L712.462 201.254L711.596 200.754L712.123 199.841L712.989 200.341L713.516 199.428L712.65 198.928L713.177 198.015L714.043 198.515L714.57 197.602L713.704 197.102L714.231 196.189L715.097 196.689L715.624 195.776L714.758 195.276L715.286 194.363L716.152 194.863L716.679 193.95L715.813 193.45L716.34 192.537L717.206 193.037L717.733 192.124L716.867 191.624L717.394 190.71L718.26 191.21L718.524 190.754C718.63 190.571 718.721 190.382 718.799 190.191L717.874 189.812C717.998 189.509 718.083 189.19 718.133 188.865L719.121 189.016C719.151 188.819 719.171 188.621 719.18 188.424C719.187 188.291 719.195 188.146 719.207 187.989L718.209 187.918C718.229 187.644 718.256 187.338 718.293 187.003L719.287 187.114C719.317 186.841 719.354 186.55 719.4 186.242L718.411 186.094C718.454 185.805 718.505 185.503 718.564 185.189L719.547 185.374C719.599 185.096 719.658 184.809 719.726 184.514L718.751 184.291C718.817 184.001 718.891 183.704 718.973 183.401L719.938 183.662C720.013 183.386 720.095 183.106 720.185 182.822L719.231 182.521C719.322 182.234 719.42 181.944 719.526 181.652L720.466 181.995C720.564 181.725 720.669 181.454 720.783 181.183L719.86 180.797C719.976 180.519 720.101 180.239 720.233 179.96L721.137 180.389C721.198 180.259 721.262 180.129 721.328 179.999Z" stroke="#1D1F21" stroke-width="2" stroke-dasharray="1 1"/>
<path fill-rule="evenodd" clip-rule="evenodd" d="M741.344 191.635L741.837 191.958C741.939 191.802 742.037 191.642 742.132 191.479C742.226 191.315 742.315 191.151 742.399 190.984L741.876 190.719C742.033 190.406 742.175 190.083 742.298 189.749L742.85 189.954C742.982 189.6 743.092 189.242 743.182 188.881L742.61 188.739L742.038 188.596C741.96 188.91 741.864 189.222 741.75 189.53L741.197 189.327C741.08 189.645 740.945 189.953 740.792 190.249L740.791 190.248L740.266 189.979C740.112 190.279 739.94 190.565 739.751 190.838L740.236 191.174L740.72 191.51C740.765 191.445 740.809 191.38 740.852 191.314L741.344 191.635ZM742.807 187.7L743.391 187.777C743.44 187.403 743.468 187.029 743.474 186.656L742.885 186.645L742.296 186.635C742.299 186.463 742.297 186.291 742.291 186.12L742.879 186.098C742.873 185.927 742.862 185.757 742.846 185.588L743.431 185.533C743.396 185.159 743.34 184.788 743.263 184.422L742.686 184.542L742.111 184.662C742.053 184.387 741.982 184.114 741.899 183.847L741.9 183.846L742.463 183.671C742.447 183.62 742.431 183.57 742.414 183.519L742.972 183.336C742.855 182.98 742.718 182.631 742.562 182.29L742.026 182.535L742.02 182.52L741.484 182.767L740.949 183.014C741.09 183.318 741.212 183.631 741.315 183.952L741.314 183.952L740.753 184.133C740.855 184.45 740.936 184.775 740.996 185.105L741.576 185L742.154 184.895C742.159 184.92 742.163 184.945 742.168 184.971L741.589 185.07C741.646 185.399 741.682 185.733 741.698 186.072L741.11 186.1C741.126 186.431 741.12 186.765 741.092 187.101L741.679 187.151L742.266 187.2C742.279 187.053 742.287 186.906 742.292 186.76C742.287 186.932 742.276 187.104 742.261 187.277L742.259 187.277L741.672 187.222C741.655 187.401 741.633 187.58 741.604 187.76C741.58 187.914 741.551 188.067 741.519 188.218L741.518 188.218L740.942 188.092C740.907 188.255 740.866 188.418 740.819 188.58C740.773 188.743 740.721 188.903 740.665 189.059L741.22 189.258L741.775 189.457C741.84 189.276 741.899 189.092 741.953 188.905C741.999 188.744 742.04 188.583 742.077 188.421L742.077 188.421L742.653 188.551C742.698 188.351 742.736 188.149 742.769 187.944C742.782 187.862 742.794 187.781 742.804 187.7L742.807 187.7ZM741.533 181.599L742.038 181.295C741.845 180.975 741.635 180.665 741.405 180.366L740.938 180.725L740.936 180.727C740.861 180.629 740.784 180.532 740.705 180.438L740.251 180.814L740.209 180.849L740.139 180.807L740.202 180.754C739.97 180.48 739.721 180.219 739.456 179.974L739.456 179.974C739.583 180.09 739.705 180.21 739.824 180.333L740.248 179.924L740.672 179.515C740.414 179.247 740.139 178.992 739.848 178.751L739.472 179.205L739.472 179.205C739.287 179.052 739.095 178.904 738.898 178.765L738.557 179.246L738.217 179.727C738.492 179.922 738.754 180.133 739.002 180.358L738.606 180.794C738.854 181.019 739.086 181.26 739.302 181.515L739.664 181.209L739.809 181.297L739.953 181.383C740.109 181.583 740.256 181.79 740.394 182.003L739.898 182.322C740.079 182.604 740.241 182.897 740.384 183.2L740.917 182.948L741.45 182.696C741.297 182.371 741.123 182.055 740.932 181.751L740.932 181.751L740.933 181.75C740.965 181.8 740.997 181.851 741.028 181.903L741.533 181.599ZM738.62 178.578L738.943 178.084C738.787 177.982 738.627 177.884 738.464 177.79C738.3 177.695 738.135 177.606 737.969 177.522L737.704 178.046C737.391 177.888 737.067 177.747 736.733 177.624L736.939 177.071C736.585 176.94 736.227 176.829 735.866 176.739L735.723 177.311L735.581 177.883C735.895 177.961 736.207 178.057 736.515 178.172L736.515 178.172L736.312 178.725C736.63 178.842 736.937 178.977 737.233 179.13L737.233 179.13L736.964 179.655C737.264 179.809 737.55 179.981 737.823 180.17L738.159 179.685L738.495 179.201C738.43 179.156 738.365 179.112 738.299 179.069L738.62 178.578ZM734.685 177.115L734.761 176.53C734.388 176.481 734.014 176.454 733.641 176.447L733.63 177.037L733.62 177.625C733.448 177.622 733.276 177.624 733.105 177.63L733.083 177.043C732.912 177.049 732.742 177.06 732.573 177.076L732.518 176.49C732.144 176.526 731.773 176.582 731.406 176.658L731.527 177.235L731.647 177.81C731.371 177.868 731.099 177.939 730.831 178.023L730.831 178.022L730.656 177.459C730.605 177.475 730.555 177.491 730.504 177.508L730.321 176.949C729.965 177.066 729.616 177.203 729.274 177.359L729.52 177.895L729.52 177.895L729.504 177.902L729.752 178.438L729.999 178.973C730.303 178.832 730.616 178.71 730.937 178.607L730.937 178.607L731.118 179.168C731.435 179.066 731.76 178.985 732.09 178.925L731.985 178.345L731.88 177.767C731.905 177.763 731.93 177.758 731.955 177.754L732.055 178.333C732.384 178.276 732.718 178.24 733.057 178.224L733.085 178.811C733.416 178.795 733.75 178.801 734.086 178.829L734.136 178.242L734.185 177.655C734.111 177.648 734.037 177.643 733.963 177.639C734.063 177.644 734.162 177.652 734.262 177.661L734.261 177.663L734.207 178.25C734.385 178.267 734.564 178.289 734.744 178.318C734.899 178.342 735.052 178.371 735.203 178.403L735.077 178.979C735.24 179.014 735.403 179.055 735.565 179.102C735.728 179.148 735.887 179.2 736.044 179.256L736.243 178.701L736.441 178.146C736.261 178.081 736.077 178.022 735.89 177.968C735.729 177.922 735.568 177.881 735.406 177.844L735.535 177.269C735.336 177.224 735.134 177.186 734.929 177.153C734.847 177.14 734.766 177.128 734.684 177.118L734.685 177.115ZM728.584 178.389L728.28 177.884C727.96 178.076 727.65 178.287 727.351 178.516L727.71 178.984L727.712 178.986C727.614 179.061 727.517 179.138 727.422 179.217L727.799 179.671L728.176 180.124C728.434 179.909 728.706 179.71 728.989 179.528L729.307 180.023C729.589 179.842 729.882 179.68 730.185 179.537L729.933 179.004L729.681 178.471C729.356 178.624 729.039 178.798 728.735 178.99L728.734 178.988C728.785 178.956 728.836 178.925 728.888 178.894L728.584 178.389ZM726.909 179.673L726.499 179.249C726.232 179.507 725.976 179.782 725.736 180.073L726.19 180.449L726.19 180.449C726.036 180.635 725.889 180.826 725.749 181.024L726.23 181.365L726.712 181.705C726.907 181.43 727.118 181.167 727.344 180.919L727.779 181.315C728.004 181.067 728.245 180.835 728.5 180.619L728.12 180.169L727.739 179.719C727.466 179.949 727.207 180.197 726.962 180.461C727.078 180.336 727.196 180.215 727.318 180.098L726.909 179.673ZM724.775 181.458C724.869 181.294 724.967 181.135 725.069 180.979L725.563 181.301L726.054 181.622C726.097 181.556 726.141 181.491 726.186 181.426L726.67 181.762L727.155 182.098C726.966 182.371 726.794 182.657 726.64 182.957L726.115 182.688L726.115 182.688C725.962 182.984 725.827 183.292 725.71 183.61L725.156 183.407L725.156 183.407C725.042 183.715 724.946 184.026 724.868 184.34L724.296 184.198L723.724 184.056C723.814 183.695 723.924 183.336 724.056 182.982L724.609 183.188L724.609 183.188C724.732 182.854 724.873 182.531 725.031 182.218L724.507 181.952C724.591 181.786 724.68 181.621 724.775 181.458ZM724.1 185.237L723.515 185.16C723.466 185.533 723.439 185.907 723.432 186.281L724.021 186.291L724.61 186.302C724.607 186.474 724.609 186.646 724.615 186.817L724.027 186.839C724.034 187.01 724.045 187.18 724.061 187.348L723.475 187.404C723.51 187.778 723.567 188.149 723.643 188.515L724.22 188.395L724.796 188.274C724.853 188.55 724.924 188.823 725.008 189.091L725.007 189.091L724.444 189.266C724.46 189.317 724.476 189.367 724.492 189.417L723.934 189.601C724.051 189.956 724.188 190.306 724.344 190.647L724.88 190.402L724.887 190.418L725.422 190.17L725.957 189.923C725.817 189.619 725.694 189.305 725.591 188.984L725.592 188.984L726.153 188.803C726.051 188.486 725.97 188.161 725.91 187.831L725.33 187.936L724.752 188.041C724.747 188.016 724.743 187.991 724.739 187.966L725.317 187.867C725.261 187.538 725.224 187.203 725.208 186.864L725.796 186.836C725.78 186.505 725.786 186.171 725.814 185.835L725.227 185.785L724.64 185.736C724.631 185.832 724.625 185.928 724.62 186.023C724.626 185.902 724.635 185.781 724.646 185.66L724.648 185.661L725.235 185.715C725.251 185.537 725.274 185.357 725.302 185.178C725.327 185.023 725.356 184.869 725.388 184.718L725.964 184.844C725.999 184.681 726.04 184.518 726.087 184.356C726.133 184.193 726.185 184.034 726.241 183.877L725.686 183.678L725.131 183.48C725.066 183.66 725.007 183.844 724.953 184.031C724.907 184.192 724.866 184.354 724.829 184.516L724.254 184.386C724.209 184.586 724.17 184.788 724.138 184.993C724.125 185.075 724.113 185.156 724.102 185.237L724.1 185.237ZM725.373 191.337L724.868 191.641C725.061 191.961 725.272 192.272 725.501 192.57L725.969 192.212L725.971 192.21C726.046 192.308 726.123 192.405 726.202 192.5L726.655 192.123L727.109 191.746C726.894 191.487 726.694 191.216 726.512 190.933L727.008 190.614C726.827 190.332 726.665 190.039 726.522 189.736L725.989 189.988L725.456 190.24C725.609 190.566 725.783 190.882 725.975 191.187L725.975 191.187L725.973 191.188C725.941 191.137 725.91 191.085 725.879 191.034L725.373 191.337ZM727.058 194.186C726.767 193.945 726.492 193.69 726.234 193.422L726.658 193.013L727.082 192.604C727.201 192.727 727.324 192.847 727.45 192.964L727.451 192.963C727.185 192.718 726.936 192.456 726.704 192.182L727.154 191.801L727.604 191.421C727.82 191.676 728.052 191.917 728.3 192.143L727.904 192.578C728.152 192.804 728.414 193.015 728.69 193.21L728.349 193.691L728.009 194.173C727.811 194.033 727.619 193.885 727.434 193.731L727.434 193.731L727.058 194.186ZM728.286 194.359L727.963 194.852C728.119 194.954 728.279 195.052 728.443 195.147C728.606 195.241 728.771 195.33 728.937 195.414L729.202 194.891C729.515 195.049 729.839 195.19 730.173 195.313L729.967 195.865C730.321 195.997 730.68 196.108 731.041 196.197L731.183 195.625L731.325 195.053C731.011 194.975 730.7 194.879 730.392 194.765L730.595 194.212C730.277 194.095 729.969 193.96 729.672 193.807L729.673 193.806L729.942 193.282C729.642 193.127 729.356 192.955 729.083 192.766L728.747 193.251L728.411 193.735C728.476 193.78 728.541 193.824 728.607 193.867L728.286 194.359ZM732.222 195.822L732.145 196.406C732.518 196.455 732.892 196.483 733.266 196.489L733.276 195.9L733.287 195.311C733.459 195.314 733.631 195.312 733.801 195.306L733.824 195.895C733.995 195.888 734.165 195.877 734.333 195.861L734.389 196.446C734.762 196.411 735.133 196.355 735.5 196.278L735.379 195.701L735.259 195.126C735.535 195.068 735.807 194.997 736.075 194.913L736.076 194.915L736.251 195.478C736.301 195.462 736.352 195.446 736.402 195.429L736.585 195.987C736.941 195.87 737.291 195.734 737.632 195.577L737.387 195.042L737.402 195.035L737.155 194.5L736.908 193.965C736.603 194.105 736.29 194.228 735.969 194.331L735.969 194.329L735.788 193.768C735.471 193.87 735.146 193.951 734.816 194.011L734.921 194.591L735.026 195.17C735.014 195.172 735.001 195.174 734.988 195.176C734.976 195.179 734.963 195.181 734.951 195.183L734.852 194.605C734.523 194.661 734.188 194.698 733.849 194.714L733.849 194.714L733.821 194.125C733.49 194.141 733.156 194.135 732.82 194.107L732.77 194.694L732.721 195.281C732.895 195.296 733.068 195.305 733.241 195.31C733.042 195.305 732.844 195.294 732.645 195.276L732.645 195.274L732.7 194.687C732.521 194.671 732.342 194.648 732.162 194.62C732.156 194.619 732.149 194.618 732.143 194.617L732.162 194.585L731.909 194.433L731.746 194.335L731.829 193.957C731.666 193.922 731.503 193.881 731.341 193.834C731.178 193.788 731.019 193.736 730.862 193.68L730.663 194.235L730.464 194.79C730.645 194.855 730.829 194.914 731.016 194.968C731.177 195.014 731.339 195.055 731.501 195.092L731.501 195.093L731.371 195.668C731.571 195.713 731.773 195.752 731.978 195.784C732.059 195.797 732.141 195.809 732.222 195.82L732.222 195.822ZM738.322 194.548L738.626 195.053C738.946 194.861 739.256 194.65 739.555 194.421L739.196 193.953L739.195 193.951C739.293 193.876 739.389 193.799 739.484 193.72L739.108 193.267L738.731 192.813C738.472 193.028 738.201 193.227 737.918 193.409L737.918 193.409L737.599 192.913C737.317 193.094 737.024 193.256 736.721 193.399L736.973 193.932L737.225 194.465C737.55 194.312 737.866 194.138 738.171 193.946L738.171 193.947L738.172 193.948C738.121 193.98 738.07 194.012 738.019 194.043L738.322 194.548ZM739.998 193.263L740.407 193.688C740.675 193.429 740.93 193.155 741.171 192.863L740.716 192.488C740.87 192.302 741.017 192.111 741.157 191.913L740.676 191.573L740.195 191.232C740 191.507 739.789 191.77 739.563 192.018L739.127 191.621C738.902 191.869 738.661 192.102 738.406 192.317L738.786 192.767L739.167 193.217C739.441 192.985 739.702 192.736 739.948 192.471L739.948 192.471C739.831 192.598 739.711 192.72 739.589 192.839L739.998 193.263ZM738.847 183.47L739.454 182.459L739.202 182.307L738.697 182.003L738.444 181.851L737.836 182.862L738.089 183.014L738.594 183.318L738.847 183.47ZM737.631 185.49L738.239 184.48L737.986 184.328L737.481 184.024L737.229 183.872L736.621 184.883L736.873 185.035L737.379 185.339L737.631 185.49ZM736.416 187.511L737.023 186.501L736.771 186.349L736.266 186.045L736.013 185.893L735.405 186.904L735.658 187.056L736.163 187.36L736.416 187.511ZM735.2 189.532L735.808 188.522L735.556 188.37L735.05 188.066L734.798 187.914L734.19 188.925L734.443 189.077L734.948 189.38L735.2 189.532ZM733.985 191.553L734.593 190.543L734.34 190.391L733.835 190.087L733.582 189.935L732.975 190.946L733.227 191.098L733.732 191.401L733.985 191.553ZM732.77 193.574L733.377 192.564L733.125 192.412L732.62 192.108L732.367 191.956L731.759 192.967L732.012 193.119L732.517 193.422L732.77 193.574Z" fill="#1D1F21"/>
<circle cx="743.461" cy="169.102" r="1.76842" transform="rotate(30 743.461 169.102)" stroke="#1D1F21" stroke-width="1.17895" stroke-dasharray="1.18 1.18"/>
<circle cx="723.418" cy="203.817" r="1.76842" transform="rotate(30 723.418 203.817)" stroke="#1D1F21" stroke-width="1.17895" stroke-dasharray="1.18 1.18"/>
<rect x="1.5" y="550.5" width="1044" height="69" rx="1.5" fill="#F4F6F6" stroke="#1D1F21"/>
<path d="M92 514.999C95.8476 439.537 118.111 367.442 156.668 302.46C195.226 237.478 249.022 182.858 313.411 143.319C377.801 103.779 450.847 80.5085 526.242 75.516C601.637 70.5234 676.959 91.7952 746 122.499" stroke="#CFD0D0" stroke-linecap="round" stroke-dasharray="12 12"/>
<path d="M562.041 12.5273C637.504 13.3445 711.637 32.4969 778.053 68.3344" stroke="#CFD0D0" stroke-linecap="round" stroke-dasharray="12 12"/>
<path d="M754.332 194.83C807.536 231.534 852.514 278.915 886.4 333.957C920.287 388.999 942.339 450.495 951.152 514.528" stroke="#CFD0D0" stroke-linecap="round" stroke-dasharray="12 12"/>
<path d="M470.277 7.89977C471.118 7.89977 471.815 8.18143 472.37 8.74477C472.933 9.29943 473.215 9.99277 473.215 10.8248C473.215 11.6481 472.933 12.3414 472.37 12.9048C471.815 13.4681 471.118 13.7498 470.277 13.7498H468.184V16.9998H466.975V7.89977H470.277ZM470.277 12.6188C470.78 12.6188 471.196 12.4498 471.525 12.1118C471.854 11.7651 472.019 11.3361 472.019 10.8248C472.019 10.3048 471.854 9.87577 471.525 9.53777C471.196 9.19977 470.78 9.03077 470.277 9.03077H468.184V12.6188H470.277Z" fill="#1D1F21"/>
<path d="M474.698 9.31677C474.481 9.31677 474.299 9.2431 474.152 9.09577C474.005 8.94843 473.931 8.77077 473.931 8.56277C473.931 8.35477 474.005 8.1771 474.152 8.02977C474.299 7.87377 474.481 7.79577 474.698 7.79577C474.906 7.79577 475.084 7.87377 475.231 8.02977C475.378 8.1771 475.452 8.35477 475.452 8.56277C475.452 8.77077 475.378 8.94843 475.231 9.09577C475.084 9.2431 474.906 9.31677 474.698 9.31677ZM474.126 16.9998V10.4998H475.257V16.9998H474.126Z" fill="#1D1F21"/>
<path d="M481.133 10.4998H482.355L479.755 16.9998H478.429L475.829 10.4998H477.051L479.092 15.7908L481.133 10.4998Z" fill="#1D1F21"/>
<path d="M488.143 16.1808C487.476 16.8394 486.665 17.1688 485.712 17.1688C484.759 17.1688 483.948 16.8394 483.281 16.1808C482.622 15.5221 482.293 14.7118 482.293 13.7498C482.293 12.7878 482.622 11.9774 483.281 11.3188C483.948 10.6601 484.759 10.3308 485.712 10.3308C486.665 10.3308 487.476 10.6601 488.143 11.3188C488.81 11.9774 489.144 12.7878 489.144 13.7498C489.144 14.7118 488.81 15.5221 488.143 16.1808ZM485.712 16.0638C486.362 16.0638 486.908 15.8428 487.35 15.4008C487.792 14.9588 488.013 14.4084 488.013 13.7498C488.013 13.0911 487.792 12.5408 487.35 12.0988C486.908 11.6568 486.362 11.4358 485.712 11.4358C485.071 11.4358 484.529 11.6568 484.087 12.0988C483.645 12.5408 483.424 13.0911 483.424 13.7498C483.424 14.4084 483.645 14.9588 484.087 15.4008C484.529 15.8428 485.071 16.0638 485.712 16.0638Z" fill="#1D1F21"/>
<path d="M493.474 11.5918H491.745V15.1148C491.745 15.4354 491.805 15.6651 491.927 15.8038C492.057 15.9338 492.252 16.0031 492.512 16.0118C492.772 16.0118 493.092 16.0031 493.474 15.9858V16.9998C492.486 17.1298 491.762 17.0518 491.303 16.7658C490.843 16.4711 490.614 15.9208 490.614 15.1148V11.5918H489.327V10.4998H490.614V9.01777L491.745 8.67977V10.4998H493.474V11.5918Z" fill="#1D1F21"/>
<path d="M494.428 13.5548V12.4628H499.173V13.5548H494.428Z" fill="#1D1F21"/>
<path d="M503.839 10.3308C504.601 10.3308 505.212 10.5734 505.672 11.0588C506.131 11.5354 506.361 12.1854 506.361 13.0088V16.9998H505.23V13.0738C505.23 12.5451 505.087 12.1378 504.801 11.8518C504.515 11.5571 504.12 11.4098 503.618 11.4098C503.054 11.4098 502.599 11.5874 502.253 11.9428C501.906 12.2894 501.733 12.8268 501.733 13.5548V16.9998H500.602V7.89977H501.733V11.4358C502.192 10.6991 502.894 10.3308 503.839 10.3308Z" fill="#1D1F21"/>
<path d="M513.026 16.1808C512.358 16.8394 511.548 17.1688 510.595 17.1688C509.641 17.1688 508.831 16.8394 508.164 16.1808C507.505 15.5221 507.176 14.7118 507.176 13.7498C507.176 12.7878 507.505 11.9774 508.164 11.3188C508.831 10.6601 509.641 10.3308 510.595 10.3308C511.548 10.3308 512.358 10.6601 513.026 11.3188C513.693 11.9774 514.027 12.7878 514.027 13.7498C514.027 14.7118 513.693 15.5221 513.026 16.1808ZM510.595 16.0638C511.245 16.0638 511.791 15.8428 512.233 15.4008C512.675 14.9588 512.896 14.4084 512.896 13.7498C512.896 13.0911 512.675 12.5408 512.233 12.0988C511.791 11.6568 511.245 11.4358 510.595 11.4358C509.953 11.4358 509.412 11.6568 508.97 12.0988C508.528 12.5408 508.307 13.0911 508.307 13.7498C508.307 14.4084 508.528 14.9588 508.97 15.4008C509.412 15.8428 509.953 16.0638 510.595 16.0638Z" fill="#1D1F21"/>
<path d="M514.96 16.9998V7.50977H516.091V16.9998H514.96Z" fill="#1D1F21"/>
<path d="M522.798 7.89977H523.929V16.9998H522.798V15.8818C522.235 16.7398 521.416 17.1688 520.341 17.1688C519.431 17.1688 518.656 16.8394 518.014 16.1808C517.373 15.5134 517.052 14.7031 517.052 13.7498C517.052 12.7964 517.373 11.9904 518.014 11.3318C518.656 10.6644 519.431 10.3308 520.341 10.3308C521.416 10.3308 522.235 10.7598 522.798 11.6178V7.89977ZM520.484 16.0768C521.143 16.0768 521.693 15.8558 522.135 15.4138C522.577 14.9631 522.798 14.4084 522.798 13.7498C522.798 13.0911 522.577 12.5408 522.135 12.0988C521.693 11.6481 521.143 11.4228 520.484 11.4228C519.834 11.4228 519.288 11.6481 518.846 12.0988C518.404 12.5408 518.183 13.0911 518.183 13.7498C518.183 14.4084 518.404 14.9631 518.846 15.4138C519.288 15.8558 519.834 16.0768 520.484 16.0768Z" fill="#1D1F21"/>
<path d="M117.524 523.9C118.763 523.9 119.79 524.342 120.605 525.226C121.428 526.102 121.84 527.176 121.84 528.45C121.84 529.724 121.428 530.803 120.605 531.687C119.79 532.563 118.763 533 117.524 533H113.975V523.9H117.524ZM117.524 531.856C118.451 531.856 119.21 531.531 119.799 530.881C120.388 530.231 120.683 529.421 120.683 528.45C120.683 527.48 120.388 526.669 119.799 526.019C119.21 525.369 118.451 525.044 117.524 525.044H115.184V531.856H117.524Z" fill="#1D1F21"/>
<path d="M128.275 532.181C127.608 532.84 126.797 533.169 125.844 533.169C124.891 533.169 124.08 532.84 123.413 532.181C122.754 531.523 122.425 530.712 122.425 529.75C122.425 528.788 122.754 527.978 123.413 527.319C124.08 526.661 124.891 526.331 125.844 526.331C126.797 526.331 127.608 526.661 128.275 527.319C128.942 527.978 129.276 528.788 129.276 529.75C129.276 530.712 128.942 531.523 128.275 532.181ZM125.844 532.064C126.494 532.064 127.04 531.843 127.482 531.401C127.924 530.959 128.145 530.409 128.145 529.75C128.145 529.092 127.924 528.541 127.482 528.099C127.04 527.657 126.494 527.436 125.844 527.436C125.203 527.436 124.661 527.657 124.219 528.099C123.777 528.541 123.556 529.092 123.556 529.75C123.556 530.409 123.777 530.959 124.219 531.401C124.661 531.843 125.203 532.064 125.844 532.064Z" fill="#1D1F21"/>
<path d="M135.695 532.181C135.028 532.84 134.218 533.169 133.264 533.169C132.311 533.169 131.501 532.84 130.833 532.181C130.175 531.523 129.845 530.712 129.845 529.75C129.845 528.788 130.175 527.978 130.833 527.319C131.501 526.661 132.311 526.331 133.264 526.331C134.218 526.331 135.028 526.661 135.695 527.319C136.363 527.978 136.696 528.788 136.696 529.75C136.696 530.712 136.363 531.523 135.695 532.181ZM133.264 532.064C133.914 532.064 134.46 531.843 134.902 531.401C135.344 530.959 135.565 530.409 135.565 529.75C135.565 529.092 135.344 528.541 134.902 528.099C134.46 527.657 133.914 527.436 133.264 527.436C132.623 527.436 132.081 527.657 131.639 528.099C131.197 528.541 130.976 529.092 130.976 529.75C130.976 530.409 131.197 530.959 131.639 531.401C132.081 531.843 132.623 532.064 133.264 532.064Z" fill="#1D1F21"/>
<path d="M138.761 527.592C139.133 526.786 139.809 526.383 140.789 526.383V527.566C140.234 527.54 139.757 527.688 139.359 528.008C138.96 528.329 138.761 528.845 138.761 529.555V533H137.63V526.5H138.761V527.592Z" fill="#1D1F21"/>
<path d="M142.229 528.255C142.229 528.507 142.355 528.71 142.606 528.866C142.858 529.014 143.161 529.135 143.516 529.23C143.872 529.317 144.227 529.421 144.582 529.542C144.938 529.655 145.241 529.854 145.492 530.14C145.744 530.418 145.869 530.777 145.869 531.219C145.869 531.809 145.64 532.281 145.18 532.636C144.73 532.992 144.149 533.169 143.438 533.169C142.806 533.169 142.264 533.031 141.813 532.753C141.363 532.476 141.042 532.108 140.851 531.648L141.826 531.089C141.93 531.401 142.125 531.648 142.411 531.83C142.697 532.012 143.04 532.103 143.438 532.103C143.811 532.103 144.119 532.034 144.361 531.895C144.604 531.748 144.725 531.523 144.725 531.219C144.725 530.968 144.6 530.769 144.348 530.621C144.097 530.465 143.794 530.344 143.438 530.257C143.083 530.162 142.728 530.054 142.372 529.932C142.017 529.811 141.714 529.612 141.462 529.334C141.211 529.057 141.085 528.702 141.085 528.268C141.085 527.705 141.302 527.241 141.735 526.877C142.177 526.513 142.728 526.331 143.386 526.331C143.915 526.331 144.383 526.453 144.79 526.695C145.206 526.929 145.518 527.259 145.726 527.683L144.777 528.216C144.543 527.662 144.08 527.384 143.386 527.384C143.066 527.384 142.793 527.462 142.567 527.618C142.342 527.766 142.229 527.978 142.229 528.255Z" fill="#1D1F21"/>
<path d="M150.09 527.592H148.361V531.115C148.361 531.436 148.422 531.666 148.543 531.804C148.673 531.934 148.868 532.004 149.128 532.012C149.388 532.012 149.709 532.004 150.09 531.986V533C149.102 533.13 148.379 533.052 147.919 532.766C147.46 532.472 147.23 531.921 147.23 531.115V527.592H145.943V526.5H147.23V525.018L148.361 524.68V526.5H150.09V527.592Z" fill="#1D1F21"/>
<path d="M156.185 532.181C155.518 532.84 154.708 533.169 153.754 533.169C152.801 533.169 151.991 532.84 151.323 532.181C150.665 531.523 150.335 530.712 150.335 529.75C150.335 528.788 150.665 527.978 151.323 527.319C151.991 526.661 152.801 526.331 153.754 526.331C154.708 526.331 155.518 526.661 156.185 527.319C156.853 527.978 157.186 528.788 157.186 529.75C157.186 530.712 156.853 531.523 156.185 532.181ZM153.754 532.064C154.404 532.064 154.95 531.843 155.392 531.401C155.834 530.959 156.055 530.409 156.055 529.75C156.055 529.092 155.834 528.541 155.392 528.099C154.95 527.657 154.404 527.436 153.754 527.436C153.113 527.436 152.571 527.657 152.129 528.099C151.687 528.541 151.466 529.092 151.466 529.75C151.466 530.409 151.687 530.959 152.129 531.401C152.571 531.843 153.113 532.064 153.754 532.064Z" fill="#1D1F21"/>
<path d="M161.708 526.331C162.618 526.331 163.393 526.665 164.035 527.332C164.676 527.991 164.997 528.797 164.997 529.75C164.997 530.704 164.676 531.514 164.035 532.181C163.393 532.84 162.618 533.169 161.708 533.169C160.633 533.169 159.814 532.74 159.251 531.882V535.6H158.12V526.5H159.251V527.618C159.814 526.76 160.633 526.331 161.708 526.331ZM161.565 532.077C162.215 532.077 162.761 531.856 163.203 531.414C163.645 530.964 163.866 530.409 163.866 529.75C163.866 529.092 163.645 528.541 163.203 528.099C162.761 527.649 162.215 527.423 161.565 527.423C160.906 527.423 160.356 527.649 159.914 528.099C159.472 528.541 159.251 529.092 159.251 529.75C159.251 530.409 159.472 530.964 159.914 531.414C160.356 531.856 160.906 532.077 161.565 532.077Z" fill="#1D1F21"/>
<path d="M174.906 533L174.165 530.959H170.07L169.329 533H168.042L171.435 523.9H172.8L176.193 533H174.906ZM170.486 529.828H173.749L172.111 525.343L170.486 529.828Z" fill="#1D1F21"/>
<path d="M871.524 523.9C872.763 523.9 873.79 524.342 874.605 525.226C875.428 526.102 875.84 527.176 875.84 528.45C875.84 529.724 875.428 530.803 874.605 531.687C873.79 532.563 872.763 533 871.524 533H867.975V523.9H871.524ZM871.524 531.856C872.451 531.856 873.21 531.531 873.799 530.881C874.388 530.231 874.683 529.421 874.683 528.45C874.683 527.48 874.388 526.669 873.799 526.019C873.21 525.369 872.451 525.044 871.524 525.044H869.184V531.856H871.524Z" fill="#1D1F21"/>
<path d="M882.275 532.181C881.608 532.84 880.797 533.169 879.844 533.169C878.891 533.169 878.08 532.84 877.413 532.181C876.754 531.523 876.425 530.712 876.425 529.75C876.425 528.788 876.754 527.978 877.413 527.319C878.08 526.661 878.891 526.331 879.844 526.331C880.797 526.331 881.608 526.661 882.275 527.319C882.942 527.978 883.276 528.788 883.276 529.75C883.276 530.712 882.942 531.523 882.275 532.181ZM879.844 532.064C880.494 532.064 881.04 531.843 881.482 531.401C881.924 530.959 882.145 530.409 882.145 529.75C882.145 529.092 881.924 528.541 881.482 528.099C881.04 527.657 880.494 527.436 879.844 527.436C879.203 527.436 878.661 527.657 878.219 528.099C877.777 528.541 877.556 529.092 877.556 529.75C877.556 530.409 877.777 530.959 878.219 531.401C878.661 531.843 879.203 532.064 879.844 532.064Z" fill="#1D1F21"/>
<path d="M889.695 532.181C889.028 532.84 888.218 533.169 887.264 533.169C886.311 533.169 885.501 532.84 884.833 532.181C884.175 531.523 883.845 530.712 883.845 529.75C883.845 528.788 884.175 527.978 884.833 527.319C885.501 526.661 886.311 526.331 887.264 526.331C888.218 526.331 889.028 526.661 889.695 527.319C890.363 527.978 890.696 528.788 890.696 529.75C890.696 530.712 890.363 531.523 889.695 532.181ZM887.264 532.064C887.914 532.064 888.46 531.843 888.902 531.401C889.344 530.959 889.565 530.409 889.565 529.75C889.565 529.092 889.344 528.541 888.902 528.099C888.46 527.657 887.914 527.436 887.264 527.436C886.623 527.436 886.081 527.657 885.639 528.099C885.197 528.541 884.976 529.092 884.976 529.75C884.976 530.409 885.197 530.959 885.639 531.401C886.081 531.843 886.623 532.064 887.264 532.064Z" fill="#1D1F21"/>
<path d="M892.761 527.592C893.133 526.786 893.809 526.383 894.789 526.383V527.566C894.234 527.54 893.757 527.688 893.359 528.008C892.96 528.329 892.761 528.845 892.761 529.555V533H891.63V526.5H892.761V527.592Z" fill="#1D1F21"/>
<path d="M896.229 528.255C896.229 528.507 896.355 528.71 896.606 528.866C896.858 529.014 897.161 529.135 897.516 529.23C897.872 529.317 898.227 529.421 898.582 529.542C898.938 529.655 899.241 529.854 899.492 530.14C899.744 530.418 899.869 530.777 899.869 531.219C899.869 531.809 899.64 532.281 899.18 532.636C898.73 532.992 898.149 533.169 897.438 533.169C896.806 533.169 896.264 533.031 895.813 532.753C895.363 532.476 895.042 532.108 894.851 531.648L895.826 531.089C895.93 531.401 896.125 531.648 896.411 531.83C896.697 532.012 897.04 532.103 897.438 532.103C897.811 532.103 898.119 532.034 898.361 531.895C898.604 531.748 898.725 531.523 898.725 531.219C898.725 530.968 898.6 530.769 898.348 530.621C898.097 530.465 897.794 530.344 897.438 530.257C897.083 530.162 896.728 530.054 896.372 529.932C896.017 529.811 895.714 529.612 895.462 529.334C895.211 529.057 895.085 528.702 895.085 528.268C895.085 527.705 895.302 527.241 895.735 526.877C896.177 526.513 896.728 526.331 897.386 526.331C897.915 526.331 898.383 526.453 898.79 526.695C899.206 526.929 899.518 527.259 899.726 527.683L898.777 528.216C898.543 527.662 898.08 527.384 897.386 527.384C897.066 527.384 896.793 527.462 896.567 527.618C896.342 527.766 896.229 527.978 896.229 528.255Z" fill="#1D1F21"/>
<path d="M904.09 527.592H902.361V531.115C902.361 531.436 902.422 531.666 902.543 531.804C902.673 531.934 902.868 532.004 903.128 532.012C903.388 532.012 903.709 532.004 904.09 531.986V533C903.102 533.13 902.379 533.052 901.919 532.766C901.46 532.472 901.23 531.921 901.23 531.115V527.592H899.943V526.5H901.23V525.018L902.361 524.68V526.5H904.09V527.592Z" fill="#1D1F21"/>
<path d="M910.185 532.181C909.518 532.84 908.708 533.169 907.754 533.169C906.801 533.169 905.991 532.84 905.323 532.181C904.665 531.523 904.335 530.712 904.335 529.75C904.335 528.788 904.665 527.978 905.323 527.319C905.991 526.661 906.801 526.331 907.754 526.331C908.708 526.331 909.518 526.661 910.185 527.319C910.853 527.978 911.186 528.788 911.186 529.75C911.186 530.712 910.853 531.523 910.185 532.181ZM907.754 532.064C908.404 532.064 908.95 531.843 909.392 531.401C909.834 530.959 910.055 530.409 910.055 529.75C910.055 529.092 909.834 528.541 909.392 528.099C908.95 527.657 908.404 527.436 907.754 527.436C907.113 527.436 906.571 527.657 906.129 528.099C905.687 528.541 905.466 529.092 905.466 529.75C905.466 530.409 905.687 530.959 906.129 531.401C906.571 531.843 907.113 532.064 907.754 532.064Z" fill="#1D1F21"/>
<path d="M915.708 526.331C916.618 526.331 917.393 526.665 918.035 527.332C918.676 527.991 918.997 528.797 918.997 529.75C918.997 530.704 918.676 531.514 918.035 532.181C917.393 532.84 916.618 533.169 915.708 533.169C914.633 533.169 913.814 532.74 913.251 531.882V535.6H912.12V526.5H913.251V527.618C913.814 526.76 914.633 526.331 915.708 526.331ZM915.565 532.077C916.215 532.077 916.761 531.856 917.203 531.414C917.645 530.964 917.866 530.409 917.866 529.75C917.866 529.092 917.645 528.541 917.203 528.099C916.761 527.649 916.215 527.423 915.565 527.423C914.906 527.423 914.356 527.649 913.914 528.099C913.472 528.541 913.251 529.092 913.251 529.75C913.251 530.409 913.472 530.964 913.914 531.414C914.356 531.856 914.906 532.077 915.565 532.077Z" fill="#1D1F21"/>
<path d="M928.113 528.281C928.529 528.481 928.859 528.767 929.101 529.139C929.353 529.512 929.478 529.941 929.478 530.426C929.478 531.154 929.223 531.765 928.711 532.259C928.2 532.753 927.576 533 926.839 533H922.913V523.9H926.553C927.264 523.9 927.866 524.139 928.36 524.615C928.854 525.092 929.101 525.681 929.101 526.383C929.101 527.189 928.772 527.822 928.113 528.281ZM926.553 525.031H924.122V527.813H926.553C926.935 527.813 927.255 527.679 927.515 527.41C927.775 527.142 927.905 526.812 927.905 526.422C927.905 526.041 927.771 525.716 927.502 525.447C927.242 525.17 926.926 525.031 926.553 525.031ZM926.839 531.869C927.247 531.869 927.589 531.726 927.866 531.44C928.144 531.154 928.282 530.803 928.282 530.387C928.282 529.98 928.139 529.633 927.853 529.347C927.576 529.061 927.238 528.918 926.839 528.918H924.122V531.869H926.839Z" fill="#1D1F21"/>
</g>
<defs>
<clipPath id="clip0_374_1412">
<rect width="1047" height="621" fill="white"/>
</clipPath>
</defs>
</svg>
